# xmcd
#
# Track frame offsets: 
#        150
#        44147
#        88850
#        116947
#        143892
#        188235
#        241895
#        267520
#        284102
#
# Disc length: 4367 seconds
#
# Revision: 5
# Processed by: cddbd v1.5.2PL0 Copyright (c) Steve Scherf et al.
# Submitted via: ExactAudioCopy v0.99pb5
#
DISCID=96110d09
DTITLE=Walter - Columbia SO - Beethoven  Symphonies Nos 4 and 6 - DISC
DTITLE=3
DYEAR=1900
DGENRE=Classical
TTITLE0=SYMPHONY NO. 4: I. Adagio - Allegro vivace
TTITLE1=II. Adagio
TTITLE2=III. Allegro vivace
TTITLE3=IV. Allegro ma non troppo
TTITLE4=SYMPHONY NO. 6: I. Allegro ma non troppo
TTITLE5=II. Andante molto moto
TTITLE6=III. Allegro
TTITLE7=IV. Allegro
TTITLE8=V. Allegretto
EXTD=
EXTT0=
EXTT1=
EXTT2=
EXTT3=
EXTT4=
EXTT5=
EXTT6=
EXTT7=
EXTT8=
PLAYORDER=
